<?xml version="1.0" encoding="UTF-8" standalone="no"?>
<!-- Generator: Adobe Illustrator 14.0.0, SVG Export Plug-In . SVG Version: 6.00 Build 43363)  -->

<svg
   xmlns:dc="http://purl.org/dc/elements/1.1/"
   xmlns:cc="http://creativecommons.org/ns#"
   xmlns:rdf="http://www.w3.org/1999/02/22-rdf-syntax-ns#"
   xmlns:svg="http://www.w3.org/2000/svg"
   xmlns="http://www.w3.org/2000/svg"
   xmlns:xlink="http://www.w3.org/1999/xlink"
   xmlns:sodipodi="http://sodipodi.sourceforge.net/DTD/sodipodi-0.dtd"
   xmlns:inkscape="http://www.inkscape.org/namespaces/inkscape"
   version="1.1"
   id="Layer_1"
   x="0px"
   y="0px"
   width="354.33069"
   height="177.16534"
   viewBox="-1332.5 2776.335 354.33069 177.16534"
   enable-background="new -1332.5 2776.335 430.849 220"
   xml:space="preserve"
   inkscape:version="0.48.4 r9939"
   sodipodi:docname="sunpy_powered_caps.svg"><metadata
     id="metadata3252"><rdf:RDF><cc:Work
         rdf:about=""><dc:format>image/svg+xml</dc:format><dc:type
           rdf:resource="http://purl.org/dc/dcmitype/StillImage" /><dc:title></dc:title></cc:Work></rdf:RDF></metadata><defs
     id="defs3250" /><sodipodi:namedview
     pagecolor="#ffffff"
     bordercolor="#666666"
     borderopacity="1"
     objecttolerance="10"
     gridtolerance="10"
     guidetolerance="10"
     inkscape:pageopacity="0"
     inkscape:pageshadow="2"
     inkscape:window-width="1920"
     inkscape:window-height="1024"
     id="namedview3248"
     showgrid="false"
     inkscape:zoom="1.9"
     inkscape:cx="163.23709"
     inkscape:cy="55.979798"
     inkscape:window-x="0"
     inkscape:window-y="27"
     inkscape:window-maximized="1"
     inkscape:current-layer="Layer_1"
     units="cm" /><g
     id="g3138"
     transform="matrix(0.84067779,0,0,0.84067779,-218.92476,438.28954)"><g
       id="Layer_1_1_"><g
         id="g3141"><g
           id="g3143"><g
             id="g3145"><defs
               id="defs3147"><path
                 id="SVGID_1_"
                 d="m -1166.996,2880.542 c 1.232,-5.287 1.197,-10.605 0.374,-15.491 l -1.824,-6.148 c -2.408,-5.688 -7.264,-10.721 -14.371,-15.15 l -4.499,-2.837 c -0.733,-0.424 -1.468,-0.849 -2.202,-1.271 -0.767,0.028 -1.798,-0.973 -2.665,-1.34 -3.53,-1.856 -6.882,-3.13 -10.102,-3.921 l -5.451,-0.908 c -6.29,-0.541 -12.14,0.703 -17.945,2.921 l -6.904,3.067 c -5.13,2.576 -19.906,14.107 -19.906,14.107 -2.354,2.275 -9.356,10.412 -13.92,19.327 -4.218,8.242 -6.104,17.297 -6.163,19.458 0,0 0.86,9.865 1.244,11.473 0.356,0.931 2.848,8.545 4.382,11.249 l 3.343,4.997 c 2.082,2.669 4.597,5.224 7.613,7.645 l 3.784,2.788 c 1.681,1.133 11.616,6.134 13.846,6.965 l 6.854,2.127 c 9.057,2.225 17.452,1.975 25.419,0.119 0.93,-0.357 1.888,-0.614 2.871,-0.77 1.716,-0.648 11.976,-4.231 11.976,-4.231 4.707,-1.857 9.269,-4.265 13.354,-8.441 0.38,-0.656 0.76,-1.314 1.141,-1.971 3.809,-6.094 -4.355,-10.812 -10.372,-11.457 -5.122,-0.547 -9.065,2.036 -13.729,3.8 -7.335,2.775 -15.037,3.893 -23.781,2.641 -12.758,-1.828 -24.682,-9.917 -27.532,-20.971 -0.355,-0.93 -0.611,-1.887 -0.768,-2.872 -1.001,-5.501 -0.876,-11.304 2.5,-17.977 0.566,-1.561 1.998,-4.037 3.069,-5.307 6.942,-10.216 16.484,-14.664 25.679,-17.124 9.223,-2.466 19.792,-2.89 30.987,2.739 0.46,-0.197 1.189,0.611 1.757,0.812 0.303,0.176 0.606,0.35 0.91,0.526 0.456,0.391 1.521,0.619 1.58,1.116 3.066,1.36 3.042,3.545 3.904,5.494 0.313,0.772 0.528,1.569 0.641,2.393 2.362,7.158 -1.886,15.863 -8.187,21.165 -6.18,5.194 -13.541,9.892 -21.065,7.044 -0.505,0.044 -1.908,-0.767 -2.123,-1.228 -4.978,-3.796 -6.697,-8.464 -5.514,-13.91 4.419,1.424 5.007,7.261 9.668,8.826 3.756,1.261 7.167,-1.185 9.953,-4.97 0.38,-0.657 0.76,-1.313 1.14,-1.971 3.94,-7.677 0.84,-11.399 -5.299,-16.382 -0.96,-0.555 -1.922,-1.11 -2.881,-1.665 -12.357,-4.334 -21.688,-5.109 -29.356,8.085 -0.671,1.162 -1.345,2.325 -2.016,3.488 -5.596,8.339 -1.582,14.519 2.615,20.325 2.622,3.632 5.799,8.225 10.483,10.915 9.61,5.514 20.229,2.95 27.741,0.659 4.837,-1.476 9.861,-3.514 14.44,-6.518 l 4.524,-3.452 c 1.653,-1.464 3.208,-3.092 4.617,-4.927 1.896,-2.471 3.346,-5.053 4.438,-7.683 l 1.728,-5.378 z"
                 inkscape:connector-curvature="0" /></defs><clipPath
               id="SVGID_2_"><use
                 xlink:href="#SVGID_1_"
                 overflow="visible"
                 id="use3151"
                 style="overflow:visible"
                 x="0"
                 y="0"
                 width="430.849"
                 height="220" /></clipPath><rect
               x="-1274.7469"
               y="2831.821"
               clip-path="url(#SVGID_2_)"
               width="111.175"
               height="111.425"
               id="rect3153"
               style="fill:#fed20b" /></g></g></g><g
         id="g3155"><g
           id="g3157"><g
             id="g3159"><defs
               id="defs3161"><path
                 id="SVGID_3_"
                 d="m -1166.996,2880.542 c 1.232,-5.287 1.197,-10.605 0.374,-15.491 l -1.824,-6.148 c -2.408,-5.688 -7.264,-10.721 -14.371,-15.15 l -4.499,-2.837 c -0.733,-0.424 -1.468,-0.849 -2.202,-1.271 -0.767,0.028 -1.798,-0.973 -2.665,-1.34 -3.53,-1.856 -6.882,-3.13 -10.102,-3.921 l -5.451,-0.908 c -6.29,-0.541 -12.14,0.703 -17.945,2.921 l -6.904,3.067 c -5.13,2.576 -19.906,14.107 -19.906,14.107 -2.354,2.275 -9.356,10.412 -13.92,19.327 -4.218,8.242 -6.104,17.297 -6.163,19.458 0,0 0.86,9.865 1.244,11.473 0.356,0.931 2.848,8.545 4.382,11.249 l 3.343,4.997 c 2.082,2.669 4.597,5.224 7.613,7.645 l 3.784,2.788 c 1.681,1.133 11.616,6.134 13.846,6.965 l 6.854,2.127 c 9.057,2.225 17.452,1.975 25.419,0.119 0.93,-0.357 1.888,-0.614 2.871,-0.77 1.716,-0.648 11.976,-4.231 11.976,-4.231 4.707,-1.857 9.269,-4.265 13.354,-8.441 0.38,-0.656 0.76,-1.314 1.141,-1.971 3.809,-6.094 -4.355,-10.812 -10.372,-11.457 -5.122,-0.547 -9.065,2.036 -13.729,3.8 -7.335,2.775 -15.037,3.893 -23.781,2.641 -12.758,-1.828 -24.682,-9.917 -27.532,-20.971 -0.355,-0.93 -0.611,-1.887 -0.768,-2.872 -1.001,-5.501 -0.876,-11.304 2.5,-17.977 0.566,-1.561 1.998,-4.037 3.069,-5.307 6.942,-10.216 16.484,-14.664 25.679,-17.124 9.223,-2.466 19.792,-2.89 30.987,2.739 0.46,-0.197 1.189,0.611 1.757,0.812 0.303,0.176 0.606,0.35 0.91,0.526 0.456,0.391 1.521,0.619 1.58,1.116 3.066,1.36 3.042,3.545 3.904,5.494 0.313,0.772 0.528,1.569 0.641,2.393 2.362,7.158 -1.886,15.863 -8.187,21.165 -6.18,5.194 -13.541,9.892 -21.065,7.044 -0.505,0.044 -1.908,-0.767 -2.123,-1.228 -4.978,-3.796 -6.697,-8.464 -5.514,-13.91 4.419,1.424 5.007,7.261 9.668,8.826 3.756,1.261 7.167,-1.185 9.953,-4.97 0.38,-0.657 0.76,-1.313 1.14,-1.971 3.94,-7.677 0.84,-11.399 -5.299,-16.382 -0.96,-0.555 -1.922,-1.11 -2.881,-1.665 -12.357,-4.334 -21.688,-5.109 -29.356,8.085 -0.671,1.162 -1.345,2.325 -2.016,3.488 -5.596,8.339 -1.582,14.519 2.615,20.325 2.622,3.632 5.799,8.225 10.483,10.915 9.61,5.514 20.229,2.95 27.741,0.659 4.837,-1.476 9.861,-3.514 14.44,-6.518 l 4.524,-3.452 c 1.653,-1.464 3.208,-3.092 4.617,-4.927 1.896,-2.471 3.346,-5.053 4.438,-7.683 l 1.728,-5.378 z"
                 inkscape:connector-curvature="0" /></defs><clipPath
               id="SVGID_4_"><use
                 xlink:href="#SVGID_3_"
                 overflow="visible"
                 id="use3165"
                 style="overflow:visible"
                 x="0"
                 y="0"
                 width="430.849"
                 height="220" /></clipPath><g
               clip-path="url(#SVGID_4_)"
               id="g3167"><g
                 id="g3169"><path
                   d="m -1226.777,2833.026 c -3.293,1.257 -6.58,2.682 -9.878,4.236 -0.938,0.442 -1.878,0.936 -2.817,1.407 l 20.121,15.454 -7.426,-21.097 z"
                   id="path3171"
                   inkscape:connector-curvature="0"
                   style="fill:#f27900" /><path
                   d="m -1265.27,2868.066 c -1.942,3.148 -3.676,6.385 -5.129,9.666 l 19.971,-0.068 -14.842,-9.598 z"
                   id="path3173"
                   inkscape:connector-curvature="0"
                   style="fill:#f27900" /><path
                   d="m -1268.713,2912.147 c 2.066,3.643 4.433,7.204 7.141,10.676 l 12.151,-19.859 -19.292,9.183 z"
                   id="path3175"
                   inkscape:connector-curvature="0"
                   style="fill:#f27900" /><path
                   d="m -1213.818,2942.751 c 4.558,-0.489 8.914,-1.205 13.069,-2.147 l -10.031,-20.943 -3.038,23.09 z"
                   id="path3177"
                   inkscape:connector-curvature="0"
                   style="fill:#f27900" /><path
                   d="m -1183.395,2907.629 c 3.013,-1.976 5.921,-4.18 8.683,-6.627 l -15.617,-11.208 6.934,17.835 z"
                   id="path3179"
                   inkscape:connector-curvature="0"
                   style="fill:#f27900" /><path
                   d="m -1166.674,2863.371 c -0.046,-0.272 -0.082,-0.55 -0.13,-0.821 -0.531,-1.309 -0.894,-2.663 -1.086,-4.063 -0.475,-1.892 -1.112,-3.74 -1.881,-5.555 l -16.392,8.538 19.489,1.901 z"
                   id="path3181"
                   inkscape:connector-curvature="0"
                   style="fill:#f27900" /><path
                   d="m -1182.521,2843.552 c -0.538,-0.335 -1.061,-0.675 -1.611,-1.008 -1.359,-1.068 -4.076,-1.772 -4.546,-3.079 -1.295,-0.75 -2.59,-1.498 -3.887,-2.247 l -1.172,21.668 11.216,-15.334 z"
                   id="path3183"
                   inkscape:connector-curvature="0"
                   style="fill:#f27900" /><path
                   d="m -1245.695,2847.615 c -2.957,2.397 -5.798,4.881 -8.457,7.435 -0.132,0.128 -0.266,0.266 -0.397,0.394 l 18.728,9.84 -9.874,-17.669 z"
                   id="path3185"
                   inkscape:connector-curvature="0"
                   style="fill:#f27900" /><path
                   d="m -1272.268,2888.218 c -0.097,3.558 0.097,7.052 0.549,10.493 l 17.169,-7.784 -17.718,-2.709 z"
                   id="path3187"
                   inkscape:connector-curvature="0"
                   style="fill:#f27900" /><path
                   d="m -1249.421,2932.979 c 3.712,2.097 7.624,4.099 11.762,6.002 l 5.465,-22.069 -17.227,16.067 z"
                   id="path3189"
                   inkscape:connector-curvature="0"
                   style="fill:#f27900" /><path
                   d="m -1182.172,2874.756 15.321,10.057 c 1.371,-3.302 2.433,-6.643 3.214,-9.993 l -18.535,-0.064 z"
                   id="path3191"
                   inkscape:connector-curvature="0"
                   style="fill:#f27900" /><path
                   d="m -1199.375,2835.007 c -3.64,-0.895 -7.192,-1.478 -10.678,-1.778 l 2.518,18.888 8.16,-17.11 z"
                   id="path3193"
                   inkscape:connector-curvature="0"
                   style="fill:#f27900" /><path
                   d="m -1202.564,2912.163 c 3.212,-0.544 6.422,-1.318 9.596,-2.346 l -8.883,-14.946 -0.713,17.292 z"
                   id="path3195"
                   inkscape:connector-curvature="0"
                   style="fill:#f27900" /><path
                   d="m -1233.774,2902.815 c 2.955,3.028 6.15,5.884 9.592,8.514 l 9.401,-20.521 -18.993,12.007 z"
                   id="path3197"
                   inkscape:connector-curvature="0"
                   style="fill:#f27900" /></g></g></g></g></g></g><g
       id="Layer_2"><g
         id="g3200"><path
           d="m -1129.114,2875.456 c 6.205,-0.649 15.334,-2.387 15.063,4.203 0,0.759 0,1.519 0,2.277 -0.444,4.329 -4.991,4.876 -8.932,5.955 -7.496,2.059 -16.465,3.993 -24.522,4.555 -0.584,0 -1.167,0 -1.751,0 -3.577,-0.775 -9.51,-2.671 -9.285,-6.83 0.154,-2.811 4.372,-4.503 7.532,-5.606 6.663,-2.329 14.326,-3.765 21.895,-4.554 z"
           id="path3202"
           inkscape:connector-curvature="0"
           style="fill:#fed20b" /><path
           d="m -1122.371,2935.892 c 2.022,2.344 0.409,9.16 -2.452,9.808 -1.825,0.417 -4.299,-0.867 -5.78,-1.576 -8.65,-4.116 -15.392,-7.97 -23.646,-13.137 -2.628,-1.642 -7.212,-3.787 -7.708,-6.83 -0.584,-3.569 1.898,-6.802 5.08,-7.181 3.467,-0.416 8.027,1.298 10.685,2.626 3.146,1.577 5.752,3.447 8.057,5.082 5.897,4.181 10.743,7.341 15.413,10.858 0.175,0.131 0.212,0.189 0.351,0.35 z"
           id="path3204"
           inkscape:connector-curvature="0"
           style="fill:#fed20b" /><path
           d="m -1142.048,2820.227 c 3.401,-0.022 6.788,3.212 6.306,6.832 -0.269,2.021 -2.672,4.013 -4.554,5.78 -5.715,5.357 -12.808,11.509 -21.193,13.137 -0.701,0 -1.402,0 -2.103,0 -2.692,-0.569 -5.115,-1.649 -5.429,-4.204 -0.387,-3.132 3.32,-5.934 4.905,-7.356 4.386,-3.941 9.137,-6.708 14.187,-9.984 2.24,-1.46 4.991,-4.19 7.881,-4.205 z"
           id="path3206"
           inkscape:connector-curvature="0"
           style="fill:#fed20b" /><path
           d="m -1161.343,2971.91 c 0.817,1.818 1.978,4.021 1.926,5.605 -0.102,3.09 -3.452,5.957 -6.831,5.779 -2.766,-0.145 -3.641,-1.91 -5.605,-3.502 -0.627,-0.775 -1.328,-1.473 -2.103,-2.102 -7.05,-7.547 -12.539,-16.655 -15.588,-28.2 0,-0.759 0,-1.518 0,-2.278 0.137,-2.328 2.685,-5.219 5.254,-5.606 4.437,-0.663 7.708,2.796 9.808,5.429 5.534,6.929 9.255,16.236 13.139,24.875 z"
           id="path3208"
           inkscape:connector-curvature="0"
           style="fill:#fed20b" /><path
           d="m -1200.753,2782 c 4.196,0.825 6.307,3.737 5.956,9.108 -0.401,0.241 -0.065,1.219 -0.176,1.752 -0.642,8.108 -1.736,20.252 -4.905,27.149 -1.189,2.591 -3.48,5.971 -7.531,5.254 -3.343,-0.591 -4.48,-4.144 -4.728,-8.231 0,-1.693 0,-3.386 0,-5.08 0.081,-5.386 1.029,-12.348 2.453,-17.515 1.43,-5.174 2.919,-10.714 7.354,-12.436 0.527,0 1.052,0 1.577,0 z"
           id="path3210"
           inkscape:connector-curvature="0"
           style="fill:#fed20b" /><path
           d="m -1208.984,2970.566 c -0.402,0.416 -0.067,1.568 -0.176,2.277 -0.795,7.672 -1.277,15.654 -6.831,18.566 -0.524,0 -1.05,0 -1.577,0 -4.401,-2.371 -4.802,-8.744 -5.428,-14.889 -0.117,-0.934 0.232,-2.334 -0.176,-2.977 0,-0.469 0,-0.936 0,-1.402 0.409,-0.875 0.059,-2.51 0.176,-3.678 0.232,-4.051 0.401,-7.583 1.226,-11.561 0.591,-2.862 1.679,-7.956 4.554,-8.233 3.751,-0.365 5.89,4.868 6.83,8.233 1.219,4.351 1.35,8.685 1.402,13.664 z"
           id="path3212"
           inkscape:connector-curvature="0"
           style="fill:#fed20b" /><path
           d="m -1245.243,2947.269 c 0,1.052 0,2.103 0,3.153 -1.612,9.655 -6.539,19.858 -12.961,26.622 -1.81,1.912 -5.035,5.678 -8.583,4.205 -1.211,-0.502 -1.591,-1.986 -1.926,-3.682 0,-0.699 0,-1.4 0,-2.102 1.708,-11.721 6.561,-20.297 12.436,-27.85 0.832,-0.685 1.591,-1.444 2.277,-2.275 2.16,-2.896 8.904,-3.26 8.757,1.929 z"
           id="path3214"
           inkscape:connector-curvature="0"
           style="fill:#fed20b" /><path
           d="m -1244.729,2822.537 c 0.797,3.291 2.496,8.51 -1.576,9.284 -0.584,0 -1.168,0 -1.752,0 -2.306,-0.205 -3.291,-1.73 -4.729,-2.803 -0.802,-0.949 -1.678,-1.824 -2.626,-2.627 -7.131,-6.568 -15.261,-22.085 -8.408,-35.032 3.576,0.525 5.677,3.832 7.706,6.656 4.897,6.831 9.021,14.742 11.385,24.522 z"
           id="path3216"
           inkscape:connector-curvature="0"
           style="fill:#fed20b" /><path
           d="m -1268.639,2852.335 c 0.737,3.393 -1.489,5.547 -4.379,5.78 -5.415,0.438 -11.728,-3.248 -15.414,-5.43 -4.707,-2.787 -8.641,-5.707 -12.085,-8.757 -0.627,-0.773 -1.328,-1.474 -2.103,-2.102 -1.941,-2.795 -5.35,-5.042 -4.729,-9.809 4.312,-0.781 8.436,0.927 12.085,2.277 7.102,2.62 13.517,5.772 19.618,10.158 2.759,1.979 6.27,4.467 7.007,7.883 z"
           id="path3218"
           inkscape:connector-curvature="0"
           style="fill:#fed20b" /><path
           d="m -1276.596,2923.273 c 0.562,2.788 -1.962,5.86 -3.503,7.531 -3.503,3.794 -8.123,6.683 -12.787,8.932 -2.772,1.342 -12.457,4.417 -13.136,-0.524 -0.401,-2.891 2.146,-4.028 3.153,-5.955 0.658,-0.512 1.241,-1.095 1.751,-1.751 3.16,-2.534 6.211,-5.102 10.334,-7.356 1.956,-1.067 13.064,-6.474 14.188,-0.877 z"
           id="path3220"
           inkscape:connector-curvature="0"
           style="fill:#fed20b" /><path
           d="m -1281.325,2885.439 c 0.38,6.509 -11.027,7.371 -17.165,7.881 -2.103,0 -4.205,0 -6.306,0 -7.816,-0.824 -15.983,-1.3 -19.092,-6.831 0,-0.408 0,-0.816 0,-1.226 2.153,-5.846 9.437,-6.562 16.64,-7.357 0.709,-0.109 1.862,0.227 2.277,-0.176 0.875,0 1.751,0 2.627,0 0.474,0.402 1.686,0.066 2.451,0.176 4.065,0.344 7.657,0.561 11.385,1.751 2.804,0.893 6.994,2.593 7.183,5.782 z"
           id="path3222"
           inkscape:connector-curvature="0"
           style="fill:#fed20b" /></g><g
         id="g3224"><g
           id="g3226"><path
             d="m -1199.798,2883.831 c 1.593,-0.094 2.741,-0.407 4.319,0.299 0.734,0.329 1.477,0.329 2.261,0.251 1.702,-0.167 2.929,-1.154 4.25,-2.125 0.534,-0.393 -0.472,-0.437 -0.653,-0.419 -0.661,0.063 -1.352,0.268 -1.891,0.663 -0.663,0.487 -0.849,0.891 -1.822,0.455 -0.462,-0.207 -0.947,-0.453 -1.459,-0.492 -1.28,-0.098 -2.498,0.212 -3.769,0.286 -0.709,0.041 -3.094,1.191 -1.236,1.082 l 0,0 z"
             id="path3228"
             inkscape:connector-curvature="0"
             style="fill:#fed20b" /></g></g><g
         id="g3230"><g
           id="g3232"><path
             d="m -1193.93,2884.215 c 0.891,1.133 2.161,1.887 3.624,1.816 0.608,-0.028 1.424,-0.25 1.888,-0.667 0.486,-0.437 -0.432,-0.45 -0.66,-0.438 0.386,-0.019 -0.091,-0.059 -0.208,-0.105 -0.245,-0.096 -0.474,-0.235 -0.696,-0.374 -0.414,-0.261 -0.825,-0.599 -1.129,-0.987 -0.303,-0.385 -1.137,-0.145 -1.522,-0.042 -0.105,0.027 -1.534,0.496 -1.297,0.797 l 0,0 z"
             id="path3234"
             inkscape:connector-curvature="0"
             style="fill:#fed20b" /></g></g></g></g><text
     font-size="72"
     id="text3236"
     style="font-size:60.52880096px;fill:#f27900;font-family:MyriadPro-Bold"
     x="-1151.9844"
     y="2855.6223"><tspan
       style="font-style:normal;font-variant:normal;font-weight:bold;font-stretch:normal;font-family:Myriad Pro;-inkscape-font-specification:Myriad Pro Bold"
       id="tspan3254">Sun</tspan></text>
<text
     font-size="72"
     id="text3238"
     style="font-size:60.52880096px;fill:#fed20b;font-family:MyriadPro-Regular"
     x="-1049.9142"
     y="2855.2021"><tspan
       style="font-style:normal;font-variant:normal;font-weight:bold;font-stretch:normal;font-family:Myriad Pro;-inkscape-font-specification:Myriad Pro Bold"
       id="tspan3258">Py</tspan></text>
<text
     font-size="72"
     id="text3240"
     style="font-size:60.52880096px;fill:none;stroke:#444444;stroke-width:1.26101661;font-family:MyriadPro-Regular"
     x="-1049.9142"
     y="2856.0427"><tspan
       style="font-style:normal;font-variant:normal;font-weight:bold;font-stretch:normal;stroke-width:1.26101661;font-family:Myriad Pro;-inkscape-font-specification:Myriad Pro Bold"
       id="tspan3256">Py</tspan></text>
<g
     id="g3242"
     transform="matrix(0.84067779,0,0,0.84067779,-223.96882,445.01497)"><rect
       x="-1114.045"
       y="2895.9341"
       width="212.394"
       height="43.733002"
       id="rect3244"
       style="fill:none" /><text
       transform="translate(-1097.7749,2930.0132)"
       font-size="48"
       id="text3246"
       style="font-size:48px;fill:#444444;font-family:MyriadPro-Regular"><tspan
         style="font-style:normal;font-variant:normal;font-weight:bold;font-stretch:normal;font-family:Myriad Pro;-inkscape-font-specification:Myriad Pro Bold"
         id="tspan3260">Powered</tspan></text>
</g></svg>