<?xml version="1.0" encoding="UTF-8" standalone="no"?>
<!-- Generator: Adobe Illustrator 14.0.0, SVG Export Plug-In . SVG Version: 6.00 Build 43363)  -->

<svg
   xmlns:dc="http://purl.org/dc/elements/1.1/"
   xmlns:cc="http://creativecommons.org/ns#"
   xmlns:rdf="http://www.w3.org/1999/02/22-rdf-syntax-ns#"
   xmlns:svg="http://www.w3.org/2000/svg"
   xmlns="http://www.w3.org/2000/svg"
   xmlns:xlink="http://www.w3.org/1999/xlink"
   xmlns:sodipodi="http://sodipodi.sourceforge.net/DTD/sodipodi-0.dtd"
   xmlns:inkscape="http://www.inkscape.org/namespaces/inkscape"
   version="1.1"
   id="Layer_1"
   x="0px"
   y="0px"
   width="212.59842"
   height="212.59842"
   viewBox="0 0 212.59841 212.59841"
   enable-background="new 0 0 608.325 607.067"
   xml:space="preserve"
   inkscape:version="0.48.4 r9939"
   sodipodi:docname="sunpy_icon.svg"><metadata
     id="metadata3564"><rdf:RDF><cc:Work
         rdf:about=""><dc:format>image/svg+xml</dc:format><dc:type
           rdf:resource="http://purl.org/dc/dcmitype/StillImage" /><dc:title></dc:title></cc:Work></rdf:RDF></metadata><defs
     id="defs3562"><inkscape:path-effect
       effect="spiro"
       id="path-effect4466"
       is_visible="true" /><inkscape:path-effect
       effect="spiro"
       id="path-effect4462"
       is_visible="true" /><inkscape:path-effect
       effect="spiro"
       id="path-effect4458"
       is_visible="true" /></defs><sodipodi:namedview
     pagecolor="#ffffff"
     bordercolor="#666666"
     borderopacity="1"
     objecttolerance="10"
     gridtolerance="10"
     guidetolerance="10"
     inkscape:pageopacity="0"
     inkscape:pageshadow="2"
     inkscape:window-width="1920"
     inkscape:window-height="1024"
     id="namedview3560"
     showgrid="false"
     units="cm"
     showguides="true"
     inkscape:guide-bbox="true"
     inkscape:zoom="4.1012193"
     inkscape:cx="65.868928"
     inkscape:cy="104.05392"
     inkscape:window-x="0"
     inkscape:window-y="27"
     inkscape:window-maximized="1"
     inkscape:current-layer="Layer_1" /><g
     id="Layer_1_1_"
     transform="matrix(0.32628804,0,0,0.32628804,7.0544597,7.2596914)"><g
       id="g3473"><defs
         id="defs3475"><path
           inkscape:connector-curvature="0"
           d="m 454.822,285.668 c 3.571,-15.324 3.469,-30.743 1.086,-44.906 l -5.29,-17.822 c -6.979,-16.486 -21.057,-31.078 -41.661,-43.92 l -13.039,-8.224 c -2.127,-1.229 -4.256,-2.459 -6.381,-3.687 -2.226,0.083 -5.217,-2.821 -7.729,-3.884 -10.236,-5.38 -19.951,-9.074 -29.283,-11.367 l -15.805,-2.633 c -18.23,-1.566 -35.192,2.037 -52.022,8.467 l -20.013,8.893 c -14.873,7.466 -57.707,40.896 -57.707,40.896 -6.823,6.595 -27.124,30.184 -40.354,56.028 -12.229,23.893 -17.695,50.145 -17.865,56.409 0,0 2.496,28.597 3.606,33.262 1.033,2.697 8.256,24.769 12.703,32.607 l 9.689,14.484 c 6.038,7.737 13.327,15.145 22.072,22.162 l 10.97,8.08 c 4.873,3.284 33.674,17.782 40.137,20.191 l 19.871,6.171 c 26.255,6.447 50.593,5.722 73.689,0.342 2.695,-1.033 5.475,-1.778 8.325,-2.229 4.975,-1.875 34.717,-12.263 34.717,-12.263 13.644,-5.387 26.866,-12.365 38.71,-24.471 1.105,-1.904 2.203,-3.812 3.307,-5.713 11.044,-17.669 -12.625,-31.345 -30.066,-33.215 -14.849,-1.587 -26.28,5.898 -39.798,11.015 -21.264,8.042 -43.593,11.285 -68.94,7.656 -36.988,-5.296 -71.554,-28.748 -79.814,-60.792 -1.028,-2.698 -1.772,-5.472 -2.227,-8.326 -2.902,-15.952 -2.537,-32.774 7.248,-52.115 1.642,-4.525 5.79,-11.704 8.896,-15.385 20.124,-29.617 47.786,-42.509 74.439,-49.64 26.736,-7.15 57.378,-8.376 89.834,7.941 1.333,-0.573 3.444,1.772 5.09,2.353 0.876,0.508 1.76,1.014 2.64,1.525 1.323,1.135 4.41,1.796 4.58,3.235 8.891,3.944 8.82,10.278 11.319,15.926 0.91,2.238 1.532,4.547 1.857,6.938 6.848,20.748 -5.468,45.983 -23.733,61.354 -17.917,15.059 -39.255,28.677 -61.067,20.422 -1.465,0.127 -5.531,-2.227 -6.155,-3.56 -14.429,-11.006 -19.413,-24.541 -15.985,-40.325 12.811,4.129 14.516,21.047 28.028,25.585 10.889,3.655 20.774,-3.438 28.852,-14.41 1.104,-1.904 2.203,-3.809 3.303,-5.714 11.422,-22.258 2.436,-33.048 -15.36,-47.492 -2.782,-1.608 -5.573,-3.22 -8.354,-4.827 -35.821,-12.565 -62.87,-14.811 -85.1,23.44 -1.946,3.369 -3.898,6.741 -5.845,10.113 -16.221,24.174 -4.584,42.091 7.583,58.922 7.6,10.526 16.811,23.846 30.388,31.641 27.858,15.983 58.643,8.553 80.42,1.908 14.025,-4.276 28.588,-10.186 41.861,-18.893 l 13.113,-10.007 c 4.794,-4.244 9.3,-8.964 13.383,-14.281 5.5,-7.161 9.7,-14.649 12.867,-22.274 l 5.01,-15.591 z"
           id="SVGID_1_" /></defs><clipPath
         id="SVGID_2_"><use
           height="607.06702"
           width="608.32501"
           y="0"
           x="0"
           style="overflow:visible"
           id="use3479"
           overflow="visible"
           xlink:href="#SVGID_1_" /></clipPath><rect
         style="fill:#fed20d"
         id="rect3481"
         height="323.017"
         width="322.29401"
         clip-path="url(#SVGID_2_)"
         y="144.42799"
         x="142.457" /></g><g
       id="g3483"><defs
         id="defs3485"><path
           inkscape:connector-curvature="0"
           d="m 454.822,285.668 c 3.571,-15.324 3.469,-30.743 1.086,-44.906 l -5.29,-17.822 c -6.979,-16.486 -21.057,-31.078 -41.661,-43.92 l -13.039,-8.224 c -2.127,-1.229 -4.256,-2.459 -6.381,-3.687 -2.226,0.083 -5.217,-2.821 -7.729,-3.884 -10.236,-5.38 -19.951,-9.074 -29.283,-11.367 l -15.805,-2.633 c -18.23,-1.566 -35.192,2.037 -52.022,8.467 l -20.013,8.893 c -14.873,7.466 -57.707,40.896 -57.707,40.896 -6.823,6.595 -27.124,30.184 -40.354,56.028 -12.229,23.893 -17.695,50.145 -17.865,56.409 0,0 2.496,28.597 3.606,33.262 1.033,2.697 8.256,24.769 12.703,32.607 l 9.689,14.484 c 6.038,7.737 13.327,15.145 22.072,22.162 l 10.97,8.08 c 4.873,3.284 33.674,17.782 40.137,20.191 l 19.871,6.171 c 26.255,6.447 50.593,5.722 73.689,0.342 2.695,-1.033 5.475,-1.778 8.325,-2.229 4.975,-1.875 34.717,-12.263 34.717,-12.263 13.644,-5.387 26.866,-12.365 38.71,-24.471 1.105,-1.904 2.203,-3.812 3.307,-5.713 11.044,-17.669 -12.625,-31.345 -30.066,-33.215 -14.849,-1.587 -26.28,5.898 -39.798,11.015 -21.264,8.042 -43.593,11.285 -68.94,7.656 -36.988,-5.296 -71.554,-28.748 -79.814,-60.792 -1.028,-2.698 -1.772,-5.472 -2.227,-8.326 -2.902,-15.952 -2.537,-32.774 7.248,-52.115 1.642,-4.525 5.79,-11.704 8.896,-15.385 20.124,-29.617 47.786,-42.509 74.439,-49.64 26.736,-7.15 57.378,-8.376 89.834,7.941 1.333,-0.573 3.444,1.772 5.09,2.353 0.876,0.508 1.76,1.014 2.64,1.525 1.323,1.135 4.41,1.796 4.58,3.235 8.891,3.944 8.82,10.278 11.319,15.926 0.91,2.238 1.532,4.547 1.857,6.938 6.848,20.748 -5.468,45.983 -23.733,61.354 -17.917,15.059 -39.255,28.677 -61.067,20.422 -1.465,0.127 -5.531,-2.227 -6.155,-3.56 -14.429,-11.006 -19.413,-24.541 -15.985,-40.325 12.811,4.129 14.516,21.047 28.028,25.585 10.889,3.655 20.774,-3.438 28.852,-14.41 1.104,-1.904 2.203,-3.809 3.303,-5.714 11.422,-22.258 2.436,-33.048 -15.36,-47.492 -2.782,-1.608 -5.573,-3.22 -8.354,-4.827 -35.821,-12.565 -62.87,-14.811 -85.1,23.44 -1.946,3.369 -3.898,6.741 -5.845,10.113 -16.221,24.174 -4.584,42.091 7.583,58.922 7.6,10.526 16.811,23.846 30.388,31.641 27.858,15.983 58.643,8.553 80.42,1.908 14.025,-4.276 28.588,-10.186 41.861,-18.893 l 13.113,-10.007 c 4.794,-4.244 9.3,-8.964 13.383,-14.281 5.5,-7.161 9.7,-14.649 12.867,-22.274 l 5.01,-15.591 z"
           id="SVGID_3_" /></defs><clipPath
         id="SVGID_4_"><use
           height="607.06702"
           width="608.32501"
           y="0"
           x="0"
           style="overflow:visible"
           id="use3489"
           overflow="visible"
           xlink:href="#SVGID_3_" /></clipPath><g
         id="g3491"
         clip-path="url(#SVGID_4_)"><g
           id="g3493"><path
             style="fill:#f17a22"
             inkscape:connector-curvature="0"
             id="path3495"
             d="m 281.52,147.92 c -9.547,3.645 -19.074,7.775 -28.636,12.281 -2.718,1.281 -5.445,2.711 -8.167,4.078 l 58.327,44.8 -21.524,-61.159 z" /><path
             style="fill:#f17a22"
             inkscape:connector-curvature="0"
             id="path3497"
             d="m 169.932,249.502 c -5.631,9.127 -10.658,18.51 -14.87,28.021 l 57.895,-0.196 -43.025,-27.825 z" /><path
             style="fill:#f17a22"
             inkscape:connector-curvature="0"
             id="path3499"
             d="m 159.949,377.293 c 5.989,10.56 12.848,20.886 20.701,30.95 l 35.226,-57.572 -55.927,26.622 z" /><path
             style="fill:#f17a22"
             inkscape:connector-curvature="0"
             id="path3501"
             d="m 319.087,466.011 c 13.211,-1.416 25.838,-3.491 37.886,-6.225 l -29.081,-60.713 -8.805,66.938 z" /><path
             style="fill:#f17a22"
             inkscape:connector-curvature="0"
             id="path3503"
             d="m 407.282,364.193 c 8.732,-5.729 17.166,-12.114 25.171,-19.211 l -45.273,-32.489 20.102,51.7 z" /><path
             style="fill:#f17a22"
             inkscape:connector-curvature="0"
             id="path3505"
             d="m 455.754,235.89 c -0.132,-0.79 -0.235,-1.593 -0.378,-2.381 -1.541,-3.794 -2.591,-7.721 -3.146,-11.779 -1.379,-5.486 -3.225,-10.843 -5.454,-16.104 l -47.521,24.752 56.499,5.512 z" /><path
             style="fill:#f17a22"
             inkscape:connector-curvature="0"
             id="path3507"
             d="m 409.815,178.437 c -1.56,-0.971 -3.077,-1.956 -4.671,-2.922 -3.94,-3.095 -11.817,-5.138 -13.179,-8.924 -3.751,-2.171 -7.507,-4.34 -11.268,-6.513 l -3.396,62.814 32.514,-44.455 z" /><path
             style="fill:#f17a22"
             inkscape:connector-curvature="0"
             id="path3509"
             d="m 226.678,190.217 c -8.574,6.95 -16.812,14.153 -24.519,21.555 -0.382,0.372 -0.769,0.77 -1.151,1.141 l 54.29,28.528 -28.62,-51.224 z" /><path
             style="fill:#f17a22"
             inkscape:connector-curvature="0"
             id="path3511"
             d="m 149.643,307.92 c -0.281,10.315 0.282,20.444 1.592,30.42 l 49.77,-22.563 -51.362,-7.857 z" /><path
             style="fill:#f17a22"
             inkscape:connector-curvature="0"
             id="path3513"
             d="m 215.875,437.683 c 10.762,6.077 22.103,11.885 34.099,17.403 l 15.843,-63.979 -49.942,46.576 z" /><path
             style="fill:#f17a22"
             inkscape:connector-curvature="0"
             id="path3515"
             d="m 410.829,268.895 44.411,29.155 c 3.977,-9.572 7.054,-19.258 9.321,-28.968 l -53.732,-0.187 z" /><path
             style="fill:#f17a22"
             inkscape:connector-curvature="0"
             id="path3517"
             d="m 360.957,153.664 c -10.548,-2.595 -20.853,-4.284 -30.954,-5.151 l 7.301,54.754 23.653,-49.603 z" /><path
             style="fill:#f17a22"
             inkscape:connector-curvature="0"
             id="path3519"
             d="m 351.711,377.338 c 9.311,-1.576 18.617,-3.821 27.817,-6.803 l -25.751,-43.33 -2.066,50.133 z" /><path
             style="fill:#f17a22"
             inkscape:connector-curvature="0"
             id="path3521"
             d="m 261.235,350.238 c 8.566,8.78 17.83,17.058 27.808,24.681 l 27.253,-59.491 -55.061,34.81 z" /></g></g></g></g><path
     style="fill:#fed20d"
     inkscape:connector-curvature="0"
     id="path3526"
     d="m 191.29006,95.659279 c 5.86764,-0.614727 14.50383,-2.257914 14.24835,3.975819 0,0.717512 0,1.435992 0,2.153832 -0.42026,4.09426 -4.72171,4.6124 -8.44858,5.63303 -7.09154,1.94664 -15.57438,3.77711 -23.19646,4.30766 -0.55241,0 -1.10384,0 -1.65559,0 -3.3823,-0.73219 -8.99511,-2.52678 -8.78237,-6.46083 0.1452,-2.65827 4.1357,-4.25937 7.12417,-5.302836 6.30258,-2.202118 13.5514,-3.561107 20.71048,-4.306675 z" /><path
     style="fill:#fed20d"
     inkscape:connector-curvature="0"
     id="path3528"
     d="m 197.66802,152.82592 c 1.91237,2.21615 0.38697,8.66425 -2.31893,9.2767 -1.72607,0.39415 -4.0662,-0.81996 -5.46663,-1.49016 -8.18102,-3.89294 -14.56028,-7.53889 -22.36672,-12.42635 -2.48534,-1.55281 -6.82073,-3.58265 -7.29123,-6.46051 -0.55241,-3.3761 1.79589,-6.43472 4.80589,-6.79331 3.27855,-0.39383 7.59305,1.22814 10.10678,2.48533 2.97509,1.49114 5.43987,3.25897 7.62045,4.80525 5.57822,3.95624 10.16224,6.94438 14.57986,10.27154 0.16477,0.12399 0.19903,0.17946 0.33053,0.33151 z" /><path
     style="fill:#fed20d"
     inkscape:connector-curvature="0"
     id="path3530"
     d="m 179.05589,43.418606 c 3.2172,-0.02121 6.42103,3.037741 5.96553,6.461482 -0.25712,1.912048 -2.52775,3.796687 -4.30798,5.467282 -5.40529,5.066927 -12.11606,10.885948 -20.04747,12.426028 -0.66269,0 -1.32538,0 -1.98839,0 -2.54701,-0.538702 -4.83918,-1.559984 -5.13513,-3.976473 -0.36609,-2.962369 3.1402,-5.613459 4.63949,-6.958418 4.1481,-3.727841 8.64337,-6.344345 13.41925,-9.443755 2.11859,-1.380199 4.72172,-3.962116 7.4547,-3.976146 z" /><path
     style="fill:#fed20d"
     inkscape:connector-curvature="0"
     id="path3532"
     d="m 160.80432,186.89464 c 0.77363,1.71953 1.87061,3.80386 1.82199,5.30185 -0.0966,2.92093 -3.26451,5.63369 -6.46017,5.46696 -2.61683,-0.13802 -3.44528,-1.80797 -5.30218,-3.31248 -0.59352,-0.73252 -1.25719,-1.39358 -1.9884,-1.98905 -6.66868,-7.13788 -11.8609,-15.75319 -14.74529,-26.6734 0,-0.71816 0,-1.43632 0,-2.15415 0.13019,-2.20179 2.54081,-4.93609 4.97068,-5.30218 4.19639,-0.62778 7.28927,2.64424 9.27702,5.13414 5.233,6.55415 8.75365,15.35577 12.42635,23.52831 z" /><path
     style="fill:#fed20d"
     inkscape:connector-curvature="0"
     id="path3536"
     d="m 115.74101,185.62211 c -0.38111,0.39416 -0.064,1.48494 -0.16641,2.15481 -0.75242,7.25567 -1.20759,14.80728 -6.46148,17.5618 -0.49694,0 -0.99322,0 -1.49147,0 -4.16278,-2.24323 -4.54193,-8.27075 -5.13479,-14.08292 -0.11061,-0.88359 0.22057,-2.20864 -0.16641,-2.81684 0,-0.44114 0,-0.88294 0,-1.32539 0.38698,-0.82844 0.0558,-2.37472 0.16641,-3.47855 0.22057,-3.8316 0.37947,-7.17247 1.1593,-10.93555 0.55958,-2.70656 1.58837,-7.52485 4.30766,-7.78719 3.5474,-0.34521 5.57136,4.60393 6.46017,7.78719 1.15376,4.1145 1.2784,8.21463 1.32702,12.92264 z" /><path
     style="fill:#fed20d"
     inkscape:connector-curvature="0"
     id="path3538"
     d="m 81.444217,163.5869 c 0,0.99551 0,1.98873 0,2.98293 -1.52507,9.13149 -6.185116,18.78342 -12.259946,25.18095 -1.712034,1.80927 -4.762827,5.37103 -8.118373,3.97713 -1.145597,-0.47508 -1.505167,-1.87845 -1.821993,-3.48085 0,-0.66106 0,-1.32473 0,-1.98774 1.615452,-11.08629 6.205673,-19.19749 11.763011,-26.34254 0.787333,-0.64736 1.504514,-1.36617 2.153827,-2.15187 2.043216,-2.74147 8.422147,-3.08603 8.283474,1.82199 z" /><path
     style="fill:#fed20d"
     inkscape:connector-curvature="0"
     id="path3542"
     d="m 59.314057,73.78917 c 0.697278,3.209369 -1.408259,5.246712 -4.1419,5.466956 -5.121743,0.414712 -11.093793,-3.072002 -14.579855,-5.135773 -4.452526,-2.636734 -8.173189,-5.39811 -11.431501,-8.284128 -0.593518,-0.731537 -1.256862,-1.393902 -1.9884,-1.98742 -1.836022,-2.644238 -5.060727,-4.770005 -4.473082,-9.278327 4.079253,-0.739042 7.980026,0.876736 11.431827,2.153828 6.71664,2.478484 12.784945,5.460756 18.556654,9.609509 2.608346,1.870609 5.929306,4.223798 6.626257,7.455355 z" /><path
     style="fill:#fed20d"
     inkscape:connector-curvature="0"
     id="path3544"
     d="m 51.787897,140.88933 c 0.530871,2.63673 -1.856252,5.54298 -3.313455,7.12417 -3.313128,3.58917 -7.68343,6.32118 -12.094845,8.44825 -2.622703,1.26991 -11.78324,4.17747 -12.426027,-0.49628 -0.379147,-2.73462 2.029838,-3.81072 2.982273,-5.63369 0.621905,-0.48389 1.173658,-1.03532 1.657217,-1.65592 2.989124,-2.39658 5.874489,-4.82547 9.774937,-6.95841 1.849727,-1.00791 12.356528,-6.1228 13.4199,-0.82812 z" /><path
     style="fill:#fed20d"
     inkscape:connector-curvature="0"
     id="path3546"
     d="m 47.314162,105.10271 c 0.359243,6.15738 -10.43045,6.97179 -16.235766,7.45535 -1.988726,0 -3.976799,0 -5.964546,0 -7.393361,-0.78015 -15.1185562,-1.22912 -18.0593903,-6.46213 0,-0.386 0,-0.77233 0,-1.1593 2.0363637,-5.529281 8.9262623,-6.206328 15.7394823,-6.958422 0.670196,-0.10376 1.760977,0.214371 2.15448,-0.165755 0.828119,0 1.656238,0 2.485336,0 0.448646,0.380452 1.59457,0.06199 2.318603,0.165755 3.845304,0.325635 7.241963,0.531197 10.769137,1.65689 2.650437,0.842152 6.613532,2.450752 6.792664,5.467612 z" /><g
     id="g3548"
     transform="matrix(0.32628804,0,0,0.32628804,7.0544597,7.2596914)"><g
       id="g3550"><path
         d="m 359.731,295.204 c 4.618,-0.271 7.947,-1.181 12.52,0.866 2.129,0.954 4.282,0.954 6.554,0.729 4.938,-0.484 8.489,-3.346 12.321,-6.16 1.546,-1.138 -1.369,-1.269 -1.896,-1.217 -1.915,0.182 -3.918,0.774 -5.479,1.921 -1.924,1.412 -2.461,2.582 -5.28,1.32 -1.34,-0.602 -2.749,-1.314 -4.23,-1.428 -3.711,-0.285 -7.243,0.616 -10.926,0.831 -2.056,0.119 -8.971,3.455 -3.584,3.138 l 0,0 z"
         id="path3552"
         inkscape:connector-curvature="0"
         style="fill:#fed20d" /></g></g><g
     id="g3554"
     transform="matrix(0.32628804,0,0,0.32628804,7.0544597,7.2596914)"><g
       id="g3556"><path
         d="m 376.741,296.318 c 2.583,3.285 6.264,5.47 10.504,5.267 1.764,-0.083 4.127,-0.722 5.477,-1.933 1.405,-1.266 -1.254,-1.305 -1.915,-1.272 1.121,-0.054 -0.263,-0.172 -0.603,-0.306 -0.709,-0.278 -1.371,-0.682 -2.015,-1.085 -1.204,-0.757 -2.394,-1.736 -3.275,-2.861 -0.877,-1.117 -3.295,-0.421 -4.412,-0.124 -0.306,0.082 -4.448,1.442 -3.761,2.314 l 0,0 z"
         id="path3558"
         inkscape:connector-curvature="0"
         style="fill:#fed20d" /></g></g><g
     id="g4385"
     transform="matrix(0.70364035,0,0,0.70364035,159.55354,18.78387)"><text
       y="34.729416"
       x="-161.77458"
       style="font-size:60.52879715px;fill:#f27900;font-family:MyriadPro-Bold"
       id="text3236"
       font-size="72"><tspan
         id="tspan3254"
         style="font-style:normal;font-variant:normal;font-weight:bold;font-stretch:normal;font-family:Myriad Pro;-inkscape-font-specification:Myriad Pro Bold">Sun</tspan></text>
<text
       y="34.30925"
       x="-59.704407"
       style="font-size:60.52879715px;fill:#fed20b;font-family:MyriadPro-Regular"
       id="text3238"
       font-size="72"><tspan
         id="tspan3258"
         style="font-style:normal;font-variant:normal;font-weight:bold;font-stretch:normal;font-family:Myriad Pro;-inkscape-font-specification:Myriad Pro Bold">Py</tspan></text>
<text
       y="35.149826"
       x="-59.704407"
       style="font-size:60.52879715px;fill:none;stroke:#444444;stroke-width:1.26101661;font-family:MyriadPro-Regular"
       id="text3240"
       font-size="72"><tspan
         id="tspan3256"
         style="font-style:normal;font-variant:normal;font-weight:bold;font-stretch:normal;stroke-width:1.26101661;font-family:Myriad Pro;-inkscape-font-specification:Myriad Pro Bold">Py</tspan></text>
</g></svg>